<svg xmlns="http://www.w3.org/2000/svg" viewBox="-226.2 -285.7 512.6 508.0" width="512.6" height="508.0"><rect x="-226.2" y="-285.7" width="512.6" height="508.0" fill="#ffffff"/><path stroke="#1f2430" stroke-dasharray="5 4" stroke-opacity="0.55" stroke-width="1.0" id="zone-edge-back" d="M 77.28 -148.64 L 164.07 -46.15 M 164.07 -46.15 L 77.28 29.91 M 77.28 29.91 L -9.51 -72.58 M -9.51 -72.58 L 77.28 -148.64 M -134.93 -56.11 L -9.51 -72.58 M 77.28 29.91 L 38.64 148.86 M 38.64 148.86 L -86.79 165.33 M -173.57 62.84 L -134.93 -56.11 M 38.64 -208.22 L 77.28 -148.64 M -134.93 -56.11 L -173.57 -115.7 M 164.07 -46.15 L 212.21 -3.25 M 86.79 191.76 L 38.64 148.86" stroke-linecap="round" stroke-linejoin="round" fill="none"/><polyline stroke="#6b7280" stroke-width="1.0" points="0.0,0.0 -77.28,59.37" fill="none"/><polyline stroke="#6b7280" stroke-width="1.0" points="0.0,0.0 173.57,26.43" fill="none"/><polyline stroke="#6b7280" stroke-width="1.0" points="0.0,0.0 0.0,-178.54" fill="none"/><polyline stroke="#c0392b" stroke-width="2.4" id="path" points="0.0,0.0 0.0,-178.54 -38.64,-148.86 -57.96,-89.38 0.0,0.0 48.15,-46.37 24.07,-157.09 -38.64,-148.86 48.15,-46.37 -57.96,-89.38" stroke-linejoin="round" fill="none"/><circle stroke="#5c1a12" stroke-width="0.6" id="point-Γ" cx="0.0" cy="0.0" r="6.65" fill="#c0392b"/><circle stroke="#5c1a12" stroke-width="0.6" id="point-X" cx="0.0" cy="-178.54" r="6.65" fill="#c0392b"/><circle stroke="#5c1a12" stroke-width="0.6" id="point-W" cx="-38.64" cy="-148.86" r="6.65" fill="#c0392b"/><circle stroke="#5c1a12" stroke-width="0.6" id="point-K" cx="-57.96" cy="-89.38" r="6.65" fill="#c0392b"/><circle stroke="#5c1a12" stroke-width="0.6" id="point-L" cx="48.15" cy="-46.37" r="6.65" fill="#c0392b"/><circle stroke="#5c1a12" stroke-width="0.6" id="point-U" cx="24.07" cy="-157.09" r="6.65" fill="#c0392b"/><polygon id="zone-facem7" points="-38.64,-148.86 86.79,-165.33 38.64,-208.22 -86.79,-191.76" fill-opacity="0.2" fill="#a9c8ea"/><polygon id="zone-facem8" points="173.57,-62.84 134.93,56.11 173.57,115.7 212.21,-3.25" fill-opacity="0.2" fill="#a9c8ea"/><polygon id="zone-facem9" points="-164.07,46.15 -212.21,3.25 -173.57,62.84 -86.79,165.33 -38.64,208.22 -77.28,148.64" fill-opacity="0.2" fill="#a9c8ea"/><polygon id="zone-facem10" points="-38.64,-148.86 -86.79,-191.76 -173.57,-115.7 -212.21,3.25 -164.07,46.15 -77.28,-29.91" fill-opacity="0.2" fill="#a9c8ea"/><polygon id="zone-facem11" points="134.93,56.11 9.51,72.58 -77.28,148.64 -38.64,208.22 86.79,191.76 173.57,115.7" fill-opacity="0.2" fill="#a9c8ea"/><polygon id="zone-facem12" points="86.79,-165.33 -38.64,-148.86 -77.28,-29.91 9.51,72.58 134.93,56.11 173.57,-62.84" fill-opacity="0.2" fill="#a9c8ea"/><polygon id="zone-facem13" points="-77.28,-29.91 -164.07,46.15 -77.28,148.64 9.51,72.58" fill-opacity="0.2" fill="#a9c8ea"/><path stroke="#1f2430" stroke-width="1.4" id="zone-edge-front" d="M -86.79 165.33 L -173.57 62.84 M -86.79 -191.76 L 38.64 -208.22 M -173.57 -115.7 L -86.79 -191.76 M 212.21 -3.25 L 173.57 115.7 M 173.57 115.7 L 86.79 191.76 M 38.64 -208.22 L 86.79 -165.33 M 86.79 -165.33 L 173.57 -62.84 M 173.57 -62.84 L 212.21 -3.25 M -173.57 62.84 L -212.21 3.25 M -212.21 3.25 L -173.57 -115.7 M -38.64 208.22 L -86.79 165.33 M 86.79 191.76 L -38.64 208.22 M -38.64 -148.86 L 86.79 -165.33 M -86.79 -191.76 L -38.64 -148.86 M 173.57 -62.84 L 134.93 56.11 M 134.93 56.11 L 173.57 115.7 M -164.07 46.15 L -212.21 3.25 M -38.64 208.22 L -77.28 148.64 M -77.28 148.64 L -164.07 46.15 M -164.07 46.15 L -77.28 -29.91 M -77.28 -29.91 L -38.64 -148.86 M 134.93 56.11 L 9.51 72.58 M 9.51 72.58 L -77.28 148.64 M -77.28 -29.91 L 9.51 72.58" stroke-linecap="round" stroke-linejoin="round" fill="none"/><polygon id="axis-x" points="-76.27,60.68 -99.45,78.49 -94.68,84.71 -112.06,86.08 -106.25,69.64 -101.48,75.86 -78.29,58.05" fill="#6b7280"/><polygon id="axis-y" points="173.82,24.79 225.9,32.72 227.08,24.97 251.68,38.33 224.22,43.75 225.4,36.0 173.32,28.07" fill="#6b7280"/><polygon id="axis-z" points="-1.66,-178.54 -1.66,-232.1 -9.5,-232.1 0.0,-258.89 9.5,-232.1 1.66,-232.1 1.66,-178.54" fill="#6b7280"/><text font-family="DejaVu Serif" font-size="20" font-style="italic" fill="#4b5563" id="label-kx" x="-119.99" y="95.56"><tspan>k</tspan><tspan font-size="14" baseline-shift="sub">x</tspan></text><text font-family="DejaVu Serif" font-size="20" font-style="italic" fill="#4b5563" id="label-ky" x="250.02" y="46.99"><tspan>k</tspan><tspan font-size="14" baseline-shift="sub">y</tspan></text><text font-family="DejaVu Serif" font-size="20" font-style="italic" fill="#4b5563" id="label-kz" x="-6.0" y="-255.35"><tspan>k</tspan><tspan font-size="14" baseline-shift="sub">z</tspan></text><text font-family="DejaVu Sans, Verdana, sans-serif" font-size="22" fill="#c0392b" id="label-Γ" x="-24.0" y="20.0">Γ</text><text font-family="DejaVu Sans, Verdana, sans-serif" font-size="22" fill="#c0392b" id="label-X" x="-26.0" y="-184.54">X</text><text font-family="DejaVu Sans, Verdana, sans-serif" font-size="22" fill="#c0392b" id="label-W" x="-30.64" y="-158.86">W</text><text font-family="DejaVu Sans, Verdana, sans-serif" font-size="22" fill="#c0392b" id="label-K" x="-45.96" y="-79.38">K</text><text font-family="DejaVu Sans, Verdana, sans-serif" font-size="22" fill="#c0392b" id="label-L" x="58.15" y="-28.37">L</text><text font-family="DejaVu Sans, Verdana, sans-serif" font-size="22" fill="#c0392b" id="label-U" x="18.07" y="-169.09">U</text></svg>