<svg xmlns="http://www.w3.org/2000/svg" viewBox="-467.5 -252.0 949.4 489.7" width="949.4" height="489.7"><defs><radialGradient gradientUnits="userSpaceOnUse" gradientTransform="matrix(19.9532 5.76 5.76 -4.9883 -141.3353 -112.0347)" id="majorana-1-profile" cx="0" cy="0" r="2.0"><stop offset="0.0" stop-opacity="0.9" stop-color="#c0392b"/><stop offset="0.125" stop-opacity="0.8445" stop-color="#c0392b"/><stop offset="0.25" stop-opacity="0.6972" stop-color="#c0392b"/><stop offset="0.375" stop-opacity="0.5056" stop-color="#c0392b"/><stop offset="0.5" stop-opacity="0.3205" stop-color="#c0392b"/><stop offset="0.625" stop-opacity="0.1754" stop-color="#c0392b"/><stop offset="0.75" stop-opacity="0.0798" stop-color="#c0392b"/><stop offset="0.875" stop-opacity="0.0261" stop-color="#c0392b"/><stop offset="1.0" stop-opacity="0.0" stop-color="#c0392b"/></radialGradient><radialGradient gradientUnits="userSpaceOnUse" gradientTransform="matrix(19.9532 5.76 5.76 -4.9883 141.3353 -30.4347)" id="majorana-2-profile" cx="0" cy="0" r="2.0"><stop offset="0.0" stop-opacity="0.9" stop-color="#c0392b"/><stop offset="0.125" stop-opacity="0.8445" stop-color="#c0392b"/><stop offset="0.25" stop-opacity="0.6972" stop-color="#c0392b"/><stop offset="0.375" stop-opacity="0.5056" stop-color="#c0392b"/><stop offset="0.5" stop-opacity="0.3205" stop-color="#c0392b"/><stop offset="0.625" stop-opacity="0.1754" stop-color="#c0392b"/><stop offset="0.75" stop-opacity="0.0798" stop-color="#c0392b"/><stop offset="0.875" stop-opacity="0.0261" stop-color="#c0392b"/><stop offset="1.0" stop-opacity="0.0" stop-color="#c0392b"/></radialGradient><linearGradient gradientUnits="userSpaceOnUse" id="field-head-shade" x1="120.36" y1="-216.02" x2="113.43" y2="-192.04"><stop offset="0" stop-color="#1f5fa8"/><stop offset="0.3" stop-color="#cfe0f7"/><stop offset="1" stop-color="#1f5fa8"/></linearGradient><linearGradient gradientUnits="userSpaceOnUse" id="field-shaft-shade" x1="59.9" y1="-224.98" x2="57.5" y2="-216.68"><stop offset="0" stop-color="#1f5fa8"/><stop offset="0.3" stop-color="#cfe0f7"/><stop offset="1" stop-color="#1f5fa8"/></linearGradient></defs><rect x="-467.49528668221626" y="-251.97414718613294" width="949.3905733644325" height="489.7248833929268" fill="#ffffff"/><polygon stroke="#7c8592" stroke-width="0.8" class="substrate" id="substrate-px" points="261.5,223.75 467.9,45.0 467.9,7.59 261.5,186.34" stroke-linejoin="round" fill="#c9ced6"/><polygon stroke="#7c8592" stroke-width="0.8" class="substrate" id="substrate-my" points="-453.5,-20.06 -453.5,17.35 261.5,223.75 261.5,186.34" stroke-linejoin="round" fill="#c9ced6"/><polygon stroke="#4a5059" stroke-width="0.8" class="gate barrier" id="gate-L-outer-px" points="-246.5,14.75 -80.9,-128.66 -80.9,-134.48 -246.5,8.93" stroke-linejoin="round" fill="#8a929d"/><polygon stroke="#4a5059" stroke-width="0.8" class="gate barrier" id="gate-L-outer-my" points="-271.44,1.73 -271.44,7.55 -246.5,14.75 -246.5,8.93" stroke-linejoin="round" fill="#8a929d"/><polygon stroke="#4a5059" stroke-width="0.8" class="gate barrier" id="gate-L-outer-pz" points="-271.44,1.73 -246.5,8.93 -80.9,-134.48 -105.84,-141.68" stroke-linejoin="round" fill="#8a929d"/><polygon stroke="#4a5059" stroke-width="0.8" class="gate plunger" id="gate-LD-px" points="-194.12,29.87 -28.52,-113.54 -28.52,-119.36 -194.12,24.05" stroke-linejoin="round" fill="#8a929d"/><polygon stroke="#4a5059" stroke-width="0.8" class="gate plunger" id="gate-LD-my" points="-237.35,11.57 -237.35,17.39 -194.12,29.87 -194.12,24.05" stroke-linejoin="round" fill="#8a929d"/><polygon stroke="#4a5059" stroke-width="0.8" class="gate plunger" id="gate-LD-pz" points="-237.35,11.57 -194.12,24.05 -28.52,-119.36 -71.75,-131.84" stroke-linejoin="round" fill="#8a929d"/><polygon stroke="#4a5059" stroke-width="0.8" class="gate barrier" id="gate-L-inner-px" points="-160.03,39.71 5.57,-103.7 5.57,-109.52 -160.03,33.89" stroke-linejoin="round" fill="#8a929d"/><polygon stroke="#4a5059" stroke-width="0.8" class="gate barrier" id="gate-L-inner-my" points="-184.97,26.69 -184.97,32.51 -160.03,39.71 -160.03,33.89" stroke-linejoin="round" fill="#8a929d"/><polygon stroke="#4a5059" stroke-width="0.8" class="gate barrier" id="gate-L-inner-pz" points="-184.97,26.69 -160.03,33.89 5.57,-109.52 -19.37,-116.72" stroke-linejoin="round" fill="#8a929d"/><polygon stroke="#4a5059" stroke-width="0.8" class="gate plunger" id="gate-PG-px" points="-7.89,83.63 157.71,-59.78 157.71,-65.6 -7.89,77.81" stroke-linejoin="round" fill="#8a929d"/><polygon stroke="#4a5059" stroke-width="0.8" class="gate plunger" id="gate-PG-my" points="-140.91,39.41 -140.91,45.23 -7.89,83.63 -7.89,77.81" stroke-linejoin="round" fill="#8a929d"/><polygon stroke="#4a5059" stroke-width="0.8" class="gate plunger" id="gate-PG-pz" points="-140.91,39.41 -7.89,77.81 157.71,-65.6 24.69,-104.0" stroke-linejoin="round" fill="#8a929d"/><polygon stroke="#4a5059" stroke-width="0.8" class="gate barrier" id="gate-R-inner-px" points="36.17,96.35 201.77,-47.06 201.77,-52.88 36.17,90.53" stroke-linejoin="round" fill="#8a929d"/><polygon stroke="#4a5059" stroke-width="0.8" class="gate barrier" id="gate-R-inner-my" points="11.23,83.33 11.23,89.15 36.17,96.35 36.17,90.53" stroke-linejoin="round" fill="#8a929d"/><polygon stroke="#4a5059" stroke-width="0.8" class="gate barrier" id="gate-R-inner-pz" points="11.23,83.33 36.17,90.53 201.77,-52.88 176.83,-60.08" stroke-linejoin="round" fill="#8a929d"/><polygon stroke="#4a5059" stroke-width="0.8" class="gate plunger" id="gate-RD-px" points="88.55,111.47 254.15,-31.94 254.15,-37.76 88.55,105.65" stroke-linejoin="round" fill="#8a929d"/><polygon stroke="#4a5059" stroke-width="0.8" class="gate plunger" id="gate-RD-my" points="45.32,93.17 45.32,98.99 88.55,111.47 88.55,105.65" stroke-linejoin="round" fill="#8a929d"/><polygon stroke="#4a5059" stroke-width="0.8" class="gate plunger" id="gate-RD-pz" points="45.32,93.17 88.55,105.65 254.15,-37.76 210.92,-50.24" stroke-linejoin="round" fill="#8a929d"/><polygon stroke="#4a5059" stroke-width="0.8" class="gate barrier" id="gate-R-outer-px" points="122.64,121.31 288.24,-22.1 288.24,-27.92 122.64,115.49" stroke-linejoin="round" fill="#8a929d"/><polygon stroke="#4a5059" stroke-width="0.8" class="gate barrier" id="gate-R-outer-my" points="97.7,108.29 97.7,114.11 122.64,121.31 122.64,115.49" stroke-linejoin="round" fill="#8a929d"/><polygon stroke="#4a5059" stroke-width="0.8" class="gate barrier" id="gate-R-outer-pz" points="97.7,108.29 122.64,115.49 288.24,-27.92 263.3,-35.12" stroke-linejoin="round" fill="#8a929d"/><polygon stroke="#7c8592" stroke-width="0.8" class="dielectric" id="dielectric-px" points="261.5,186.34 467.9,7.59 467.9,-5.71 261.5,173.04" stroke-linejoin="round" fill-opacity="0.6" fill="#e6eaf0"/><polygon stroke="#7c8592" stroke-width="0.8" class="dielectric" id="dielectric-my" points="-453.5,-33.36 -453.5,-20.06 261.5,186.34 261.5,173.04" stroke-linejoin="round" fill-opacity="0.6" fill="#e6eaf0"/><polygon stroke="#7c8592" stroke-width="0.8" class="dielectric" id="dielectric-pz" points="-453.5,-33.36 261.5,173.04 467.9,-5.71 -247.1,-212.11" stroke-linejoin="round" fill-opacity="0.6" fill="#e6eaf0"/><polygon stroke="#7d5a22" stroke-width="0.8" class="lead" id="contact-L-back-sidem2" points="-172.27,-200.49 -263.09,-121.83 -192.43,-101.43 -101.6,-180.09" stroke-linejoin="round" fill="#e2b56a"/><polygon stroke="#7d5a22" stroke-width="0.8" class="lead" id="contact-L-back-end" points="-195.75,-88.58 -101.6,-170.11 -101.6,-180.09 -192.43,-101.43" stroke-linejoin="round" fill="#e2b56a"/><polygon stroke="#2f5a40" stroke-width="0.8" class="semiconductor" id="nanowire-end-L-sidem3" points="-351.75,-121.47 -342.15,-100.99 -292.27,-86.59 -301.87,-107.07" stroke-linejoin="round" fill="#7fae8f"/><polygon stroke="#2f5a40" stroke-width="0.8" class="semiconductor" id="nanowire-end-L-sidem1" points="-322.95,-175.22 -342.15,-158.59 -292.27,-144.19 -273.07,-160.82" stroke-linejoin="round" fill="#7fae8f"/><polygon stroke="#2f5a40" stroke-width="0.8" class="semiconductor" id="nanowire-end-L-sidem2" points="-342.15,-158.59 -351.75,-121.47 -301.87,-107.07 -292.27,-144.19" stroke-linejoin="round" fill="#7fae8f"/><polygon stroke="#2d5c94" stroke-width="0.8" class="superconductor" id="al-lead-sidem2" points="43.89,-133.93 -51.09,-51.68 81.93,-13.28 176.91,-95.53" stroke-linejoin="round" fill="#9dbbe0"/><polygon stroke="#7d5a22" stroke-width="0.8" class="lead" id="contact-L-drape-end" points="-202.4,-82.82 -195.75,-88.58 -186.15,-125.69 -199.08,-153.27 -224.93,-130.88 -237.85,-80.91 -228.25,-60.43 -221.6,-66.19 -231.2,-86.67 -221.6,-123.79 -202.4,-140.42 -192.8,-119.93" stroke-linejoin="round" fill="#e2b56a"/><polygon stroke="#7d5a22" stroke-width="0.8" class="lead" id="contact-L-drape-sidem3" points="-269.75,-173.67 -295.6,-151.28 -224.93,-130.88 -199.08,-153.27" stroke-linejoin="round" fill="#e2b56a"/><polygon stroke="#7d5a22" stroke-width="0.8" class="lead" id="contact-L-drape-sidem5" points="-308.52,-101.31 -298.92,-80.83 -228.25,-60.43 -237.85,-80.91" stroke-linejoin="round" fill="#e2b56a"/><polygon stroke="#7d5a22" stroke-width="0.8" class="lead" id="contact-L-front-sidem0" points="-302.25,-87.92 -321.07,-71.62 -250.4,-51.22 -231.58,-67.52" stroke-linejoin="round" fill="#e2b56a"/><polygon stroke="#7d5a22" stroke-width="0.8" class="lead" id="contact-L-drape-sidem4" points="-295.6,-151.28 -308.52,-101.31 -237.85,-80.91 -224.93,-130.88" stroke-linejoin="round" fill="#e2b56a"/><polygon stroke="#7d5a22" stroke-width="0.8" class="lead" id="contact-L-front-sidem1" points="-321.07,-71.62 -321.07,-61.65 -250.4,-41.25 -250.4,-51.22" stroke-linejoin="round" fill="#e2b56a"/><polygon stroke="#7d5a22" stroke-width="0.8" class="lead" id="contact-L-front-end" points="-231.58,-67.52 -250.4,-51.22 -250.4,-41.25 -228.25,-60.43" stroke-linejoin="round" fill="#e2b56a"/><polygon stroke="#2d5c94" stroke-width="0.8" class="superconductor" id="al-lead-end" points="79.99,-5.78 176.91,-89.71 176.91,-95.53 81.93,-13.28" stroke-linejoin="round" fill="#9dbbe0"/><polygon stroke="#2f5a40" stroke-width="0.8" class="semiconductor" id="nanowire-dot-L-sidem3" points="-231.2,-86.67 -221.6,-66.19 -76.11,-24.19 -85.71,-44.67" stroke-linejoin="round" fill="#7fae8f"/><polygon stroke="#2f5a40" stroke-width="0.8" class="semiconductor" id="nanowire-dot-L-sidem1" points="-202.4,-140.42 -221.6,-123.79 -76.11,-81.79 -56.91,-98.42" stroke-linejoin="round" fill="#7fae8f"/><polygon stroke="#2f5a40" stroke-width="0.8" class="semiconductor" id="nanowire-dot-L-sidem2" points="-221.6,-123.79 -231.2,-86.67 -85.71,-44.67 -76.11,-81.79" stroke-linejoin="round" fill="#7fae8f"/><polygon stroke="#2f5a40" stroke-width="0.8" class="semiconductor" id="nanowire-hybrid-sidem3" points="-85.71,-44.67 -76.11,-24.19 56.91,14.21 47.31,-6.27" stroke-linejoin="round" fill="#7fae8f"/><polygon stroke="#7d5a22" stroke-width="0.8" class="lead" id="contact-R-back-sidem2" points="322.4,-57.69 231.58,20.97 302.25,41.37 393.07,-37.29" stroke-linejoin="round" fill="#e2b56a"/><polygon stroke="#2d5c94" stroke-width="0.8" class="superconductor" id="al-shell-sidem3" points="-54.97,-105.92 -78.05,-85.93 54.97,-47.53 78.05,-67.52" stroke-linejoin="round" fill="#9dbbe0"/><polygon stroke="#2d5c94" stroke-width="0.8" class="superconductor" id="al-shell-end" points="76.11,-2.42 79.99,-5.78 89.59,-42.89 78.05,-67.52 54.97,-47.53 56.91,-43.39 76.11,-60.02 85.71,-39.53" stroke-linejoin="round" fill="#9dbbe0"/><polygon stroke="#2f5a40" stroke-width="0.8" class="semiconductor" id="nanowire-hybrid-sidem2" points="-76.11,-81.79 -85.71,-44.67 47.31,-6.27 56.91,-43.39" stroke-linejoin="round" fill="#7fae8f"/><polygon stroke="#7d5a22" stroke-width="0.8" class="lead" id="contact-R-back-end" points="298.92,54.22 393.07,-27.31 393.07,-37.29 302.25,41.37" stroke-linejoin="round" fill="#e2b56a"/><polygon stroke="#2d5c94" stroke-width="0.8" class="superconductor" id="al-shell-sidem4" points="-78.05,-85.93 -76.11,-81.79 56.91,-43.39 54.97,-47.53" stroke-linejoin="round" fill="#9dbbe0"/><polygon stroke="#2f5a40" stroke-width="0.8" class="semiconductor" id="nanowire-dot-R-sidem3" points="47.31,-6.27 56.91,14.21 202.4,56.21 192.8,35.73" stroke-linejoin="round" fill="#7fae8f"/><polygon stroke="#2f5a40" stroke-width="0.8" class="semiconductor" id="nanowire-dot-R-sidem1" points="76.11,-60.02 56.91,-43.39 202.4,-1.39 221.6,-18.02" stroke-linejoin="round" fill="#7fae8f"/><polygon stroke="#2f5a40" stroke-width="0.8" class="semiconductor" id="nanowire-dot-R-sidem2" points="56.91,-43.39 47.31,-6.27 192.8,35.73 202.4,-1.39" stroke-linejoin="round" fill="#7fae8f"/><polygon stroke="#7d5a22" stroke-width="0.8" class="lead" id="contact-R-drape-end" points="292.27,59.98 298.92,54.22 308.52,17.11 295.6,-10.47 269.75,11.92 256.82,61.89 266.42,82.37 273.07,76.61 263.47,56.13 273.07,19.01 292.27,2.38 301.87,22.87" stroke-linejoin="round" fill="#e2b56a"/><polygon stroke="#7d5a22" stroke-width="0.8" class="lead" id="contact-R-drape-sidem3" points="224.93,-30.87 199.08,-8.48 269.75,11.92 295.6,-10.47" stroke-linejoin="round" fill="#e2b56a"/><polygon stroke="#7d5a22" stroke-width="0.8" class="lead" id="contact-R-drape-sidem5" points="186.15,41.49 195.75,61.97 266.42,82.37 256.82,61.89" stroke-linejoin="round" fill="#e2b56a"/><polygon stroke="#7d5a22" stroke-width="0.8" class="lead" id="contact-R-front-sidem0" points="192.43,54.88 173.6,71.18 244.27,91.58 263.09,75.28" stroke-linejoin="round" fill="#e2b56a"/><polygon stroke="#7d5a22" stroke-width="0.8" class="lead" id="contact-R-drape-sidem4" points="199.08,-8.48 186.15,41.49 256.82,61.89 269.75,11.92" stroke-linejoin="round" fill="#e2b56a"/><polygon stroke="#2f5a40" stroke-width="0.8" class="semiconductor" id="nanowire-end-R-end" points="351.75,37.27 342.15,16.78 322.95,33.41 313.35,70.53 322.95,91.01 342.15,74.38" stroke-linejoin="round" fill="#7fae8f"/><polygon stroke="#2f5a40" stroke-width="0.8" class="semiconductor" id="nanowire-end-R-sidem3" points="263.47,56.13 273.07,76.61 322.95,91.01 313.35,70.53" stroke-linejoin="round" fill="#7fae8f"/><polygon stroke="#7d5a22" stroke-width="0.8" class="lead" id="contact-R-front-sidem1" points="173.6,71.18 173.6,81.15 244.27,101.55 244.27,91.58" stroke-linejoin="round" fill="#e2b56a"/><polygon stroke="#7d5a22" stroke-width="0.8" class="lead" id="contact-R-front-end" points="263.09,75.28 244.27,91.58 244.27,101.55 266.42,82.37" stroke-linejoin="round" fill="#e2b56a"/><polygon stroke="#2f5a40" stroke-width="0.8" class="semiconductor" id="nanowire-end-R-sidem1" points="292.27,2.38 273.07,19.01 322.95,33.41 342.15,16.78" stroke-linejoin="round" fill="#7fae8f"/><polygon stroke="#2f5a40" stroke-width="0.8" class="semiconductor" id="nanowire-end-R-sidem2" points="273.07,19.01 263.47,56.13 313.35,70.53 322.95,33.41" stroke-linejoin="round" fill="#7fae8f"/><polygon class="majorana" id="majorana-1" points="-101.43,-100.51 -100.49,-101.55 -99.95,-102.68 -99.8,-103.91 -100.06,-105.21 -100.71,-106.58 -101.75,-108.0 -103.18,-109.46 -104.97,-110.94 -107.11,-112.44 -109.59,-113.93 -112.36,-115.4 -115.42,-116.84 -118.73,-118.24 -122.25,-119.57 -125.96,-120.83 -129.82,-122.01 -133.78,-123.09 -137.82,-124.07 -141.9,-124.93 -145.96,-125.66 -149.99,-126.26 -153.93,-126.73 -157.75,-127.05 -161.41,-127.24 -164.88,-127.27 -168.12,-127.16 -171.1,-126.9 -173.8,-126.5 -176.18,-125.95 -178.23,-125.28 -179.92,-124.48 -181.24,-123.55 -182.18,-122.52 -182.72,-121.39 -182.87,-120.16 -182.61,-118.86 -181.96,-117.49 -180.92,-116.07 -179.49,-114.61 -177.7,-113.13 -175.56,-111.63 -173.08,-110.14 -170.31,-108.67 -167.25,-107.23 -163.94,-105.83 -160.42,-104.5 -156.71,-103.24 -152.86,-102.06 -148.89,-100.98 -144.85,-100.0 -140.78,-99.14 -136.71,-98.41 -132.68,-97.81 -128.74,-97.34 -124.92,-97.01 -121.26,-96.83 -117.8,-96.8 -114.55,-96.91 -111.57,-97.17 -108.88,-97.57 -106.49,-98.11 -104.44,-98.79 -102.75,-99.59" fill="url(#majorana-1-profile)"/><polygon class="majorana" id="majorana-2" points="181.24,-18.91 182.18,-19.95 182.72,-21.08 182.87,-22.31 182.61,-23.61 181.96,-24.98 180.92,-26.4 179.49,-27.86 177.7,-29.34 175.56,-30.84 173.08,-32.33 170.31,-33.8 167.25,-35.24 163.94,-36.64 160.42,-37.97 156.71,-39.23 152.86,-40.41 148.89,-41.49 144.85,-42.47 140.78,-43.33 136.71,-44.06 132.68,-44.66 128.74,-45.13 124.92,-45.45 121.26,-45.64 117.8,-45.67 114.55,-45.56 111.57,-45.3 108.88,-44.9 106.49,-44.35 104.44,-43.68 102.75,-42.88 101.43,-41.95 100.49,-40.92 99.95,-39.79 99.8,-38.56 100.06,-37.26 100.71,-35.89 101.75,-34.47 103.18,-33.01 104.97,-31.53 107.11,-30.03 109.59,-28.54 112.36,-27.07 115.42,-25.63 118.73,-24.23 122.25,-22.9 125.96,-21.64 129.82,-20.46 133.78,-19.38 137.82,-18.4 141.9,-17.54 145.96,-16.81 149.99,-16.21 153.93,-15.74 157.75,-15.41 161.41,-15.23 164.88,-15.2 168.12,-15.31 171.1,-15.57 173.8,-15.97 176.18,-16.51 178.23,-17.19 179.92,-17.99" fill="url(#majorana-2-profile)"/><g id="field" class="field"><path stroke="#0d2c55" stroke-width="0.6" id="field-shaft" d="M 15.0 -237.94 L 104.79 -212.02 A 4.32 1.871 -73.898 0 1 102.39 -203.72 L 12.6 -229.64 A 4.32 1.871 -73.898 0 1 15.0 -237.94 Z " fill="url(#field-shaft-shade)"/><path stroke="#0d2c55" stroke-width="0.6" id="field-head" d="M 108.0 -219.34 L 130.2 -200.19 L 101.21 -195.82 A 12.48 5.404 -73.898 1 1 108.0 -219.34 Z " fill="url(#field-head-shade)"/></g><text text-anchor="middle" font-family="DejaVu Serif" font-size="20.0" font-style="italic" class="label" fill="#c0392b" id="label-gamma-1" x="-141.34" y="-133.03"><tspan>γ</tspan><tspan font-size="14.0" font-style="normal" dy="6.0">1</tspan></text><text text-anchor="middle" font-family="DejaVu Serif" font-size="20.0" font-style="italic" class="label" fill="#c0392b" id="label-gamma-2" x="141.34" y="-51.43"><tspan>γ</tspan><tspan font-size="14.0" font-style="normal" dy="6.0">2</tspan></text><text text-anchor="middle" font-family="DejaVu Serif" font-size="20.0" font-style="italic" class="label" fill="#1f2430" id="label-LD" x="-215.74" y="38.33"><tspan>V</tspan><tspan font-size="14.0" font-style="normal" dy="6.0">LD</tspan></text><text text-anchor="middle" font-family="DejaVu Serif" font-size="20.0" font-style="italic" class="label" fill="#1f2430" id="label-PG" x="-74.4" y="79.13"><tspan>V</tspan><tspan font-size="14.0" font-style="normal" dy="6.0">PG</tspan></text><text text-anchor="middle" font-family="DejaVu Serif" font-size="20.0" font-style="italic" class="label" fill="#1f2430" id="label-RD" x="66.94" y="119.93"><tspan>V</tspan><tspan font-size="14.0" font-style="normal" dy="6.0">RD</tspan></text><text text-anchor="middle" font-family="DejaVu Sans" font-size="20.0" font-style="normal" class="label" fill="#1f2430" id="label-N-L" x="-165.74" y="-158.35">N</text><text text-anchor="middle" font-family="DejaVu Sans" font-size="20.0" font-style="normal" class="label" fill="#1f2430" id="label-S" x="81.6" y="-82.79">S</text><text text-anchor="middle" font-family="DejaVu Sans" font-size="20.0" font-style="normal" class="label" fill="#1f2430" id="label-N-R" x="328.94" y="-15.55">N</text><text text-anchor="middle" font-family="DejaVu Serif" font-size="20.0" font-style="italic" class="label" fill="#1f5fa8" id="label-B" x="142.2" y="-193.19">B</text></svg>